<?xml version="1.0" encoding="utf-8"?>
<!-- Generator: Adobe Illustrator 24.2.0, SVG Export Plug-In . SVG Version: 6.00 Build 0)  -->
<svg version="1.1" id="Layer_1" xmlns="http://www.w3.org/2000/svg" xmlns:xlink="http://www.w3.org/1999/xlink" x="0px" y="0px"
	 viewBox="0 0 612 612" style="enable-background:new 0 0 612 612;" xml:space="preserve">
<style type="text/css">
	.st0{fill:#2C971B;}
	.st1{fill:#2A9619;}
	.st2{fill:#040403;}
	.st3{fill:#11100D;}
	.st4{fill:#3A3A30;}
	.st5{fill:#614941;}
	.st6{fill:#010101;}
	.st7{fill:#1E1D15;}
	.st8{fill:#323124;}
	.st9{fill:#020202;}
</style>
<g>
	<g>
		<path class="st0" d="M136.8,526.11c0-3.19,0-6.16,0-9.13c0-104.23,0.05-208.45-0.13-312.68c-0.01-6.39,1.79-11.07,6.05-15.76
			c12.97-14.27,25.46-28.97,38.22-43.44c1.6-1.82,2.8-4.13,5.36-5.16c2.36,1.53,1.19,3.92,1.19,5.84
			c0.06,108.27,0.05,216.54,0.08,324.82c0,4.08-0.1,7.68-3.52,10.97c-15.03,14.44-29.77,29.19-44.64,43.79
			C139.06,525.69,138.38,525.67,136.8,526.11z"/>
		<path class="st1" d="M23.51,85.9c2.75,0,5.51,0,8.26,0c82.75,0,165.49-0.01,248.24,0.01c11.27,0,10.03-0.97,10.08,9.89
			c0.05,11.2,0.06,22.39-0.01,33.59c-0.04,7.43-0.11,7.52-7.83,7.54c-31.42,0.07-62.84,0.1-94.26,0.09
			c-33.91,0-67.82-0.15-101.72,0.02c-5.64,0.03-9.95-1.35-14.2-5.28c-16.18-14.95-32.71-29.51-49.11-44.22
			C23.15,87,23.33,86.45,23.51,85.9z"/>
	</g>
	<g>
		<path class="st2" d="M472.67,314.09c0.14,1.85,0.39,3.69,0.39,5.54c0.02,55.77,0.02,111.55,0,167.32c0,2.15-0.31,4.3-0.48,6.45
			c-4.39-3.29-8.42-6.93-13.59-9.29c-8.32-3.8-15.16-10.33-24.37-12.81c-4.43-1.19-8.4-4.62-8.48-9.97
			c-0.13-8.6-0.36-17.09,2.38-25.66c3.2-10,7.59-19.53,10.71-29.53c2.83-9.06,2.41-9.94-6.6-9.77c-8.7,0.16-17.24-0.09-25.33-3.76
			c-1.11-0.49-2.25-0.92-3.32-1.48c-7.53-3.95-13.82-10.29-22.67-11.67c-0.71-3.11-0.67-6.21-0.02-9.32
			c5.18-0.43,10.43,0.82,15.58-1.28c5.96-2.43,12.14-4.32,18.23-6.44c2.76,0.21,5.57-0.05,7.94,2.01c3.74,3.26,7.62,6.34,11.45,9.49
			c6.94,5.71,13.86,11.48,21.81,15.77c3.77,2.04,10.55-0.27,12.09-3.98c1.87-4.5-0.79-6.89-4.46-8.8c-2.47-1.29-4.78-2.88-7.14-4.38
			c-5.61-3.58-10.96-7.29-10.25-15.21c0.24-2.69-1.69-3.52-4.1-4.06c-9.08-2.04-18.18-3.87-27.54-3.86
			c-0.46-3.77-2.82-5.83-6.18-7.2c-8.8-3.6-17.82-6.02-27.42-5.69c-0.74-9.34-0.69-18.67-0.02-28.01
			c7.48-0.08,12.32-5.18,17.63-9.34c6.95-5.44,14.68-9.66,23.56-8.8c9.05,0.87,17.54,3.95,20.87,14.02
			c0.28,0.86,0.97,1.58,1.45,2.37c4.3,7.12,10.62,9.86,18.86,9.31C466.83,315.83,469.57,314.27,472.67,314.09z"/>
		<path class="st3" d="M264.48,239.2c-15.14-21.54-29.59-43.56-43.89-65.66c2.83-1.88,6.02-1.06,9.05-1.07
			c18.28-0.08,36.57-0.08,54.86-0.04c25.41,0.06,50.82,0.19,76.22,0.29c-0.31,5.41-4.25,9.37-5.71,14.32
			c-1.94,0.06-3.48,0.95-5.03,2.09c-8.95,6.58-17.76,13.39-27.01,19.53c-12.76,8.47-23.66,19.68-38.03,25.78
			c-1.85,0.78-2.55,2.61-3.28,4.33C275.94,238.92,270.21,239.06,264.48,239.2z"/>
		<path class="st4" d="M264.48,239.2c5.73-0.14,11.46-0.29,17.19-0.43c10.96,0.86,21.92,0.55,32.88,0.18
			c11.5,0.05,23.01-0.19,34.49,0.26c6.38,0.25,11.38-1.31,15.56-6.29c4.44-5.3,10.21-9.08,16.44-11.98
			c6.88-3.19,13.83-3.19,20.47,0.86c3.7,2.26,7.33,4.63,10.99,6.96c11.64,7.4,24.45,5.38,37.09,4.51c1.15-0.08,2.3-0.92,3.35-1.57
			c4.46-2.79,8.92-5.59,13.31-8.5c5.15-3.42,10.04-7.27,15.38-10.36c10.52-6.09,22.05-7.98,34.1-7.07c1.17,3.2,2.46,6.36,3.47,9.61
			c1.01,3.29,2.16,5.99,6.43,4.33c1.69-0.66,3.24-0.06,3.94,1.46c1.26,2.77-1.48,2.69-2.86,3.6c-1.51,0.98-2.07,2.47-0.89,3.9
			c1.37,1.66,2.79,0.43,3.96-0.54c2.68-2.23,4.81-4.68,4.76-8.59c-0.04-3.65,1.28-4.81,5.25-3.04c3.84,1.72,1.33-3.31,3.49-4.41
			c2.16-1.1,4.55,5.05,6.43-0.85c1.52-4.75,2.96-4.71,5.21-0.04c1.21,2.53,4.73,3.21,4.59,6.91c-2.62,1.32-5.29,2.91-8.15,4.03
			c-8.27,3.27-16.25,7.07-23.84,11.71c-1.09,0.66-2.2,1.17-2.1,2.69c0.13,2.04,1.63,2.42,3.23,2.48c2.17,0.09,4.35,0.07,6.52,0.08
			c17.7,0.07,35.41,0.14,53.11,0.21c-2.76,3.18-6.4,1.42-9.54,1.42c-69.75,0.07-139.5-0.05-209.26-0.07
			c-32.07-0.01-64.14,0.15-96.21,0.11C270.32,240.76,266.97,242.11,264.48,239.2z M510.91,227.76c0.18,4.75,0.36,8.11,3.73,11.41
			C516.54,234.15,515.37,231.11,510.91,227.76z M518.51,234.94c0.67-0.08,1.34-0.17,2.01-0.25c1.45-3.94-0.55-6.69-4.34-8.91
			C516.96,228.84,517.74,231.89,518.51,234.94z"/>
		<path class="st3" d="M472.67,314.09c-3.1,0.18-5.84,1.74-9.03,1.96c-8.23,0.56-14.55-2.19-18.86-9.31
			c-0.48-0.79-1.17-1.51-1.45-2.37c-3.33-10.07-11.82-13.15-20.87-14.02c-8.89-0.86-16.62,3.36-23.56,8.8
			c-5.31,4.16-10.15,9.25-17.63,9.34c-0.14-13.33-0.21-26.66-0.47-39.98c-0.07-3.48,0.93-4.89,4.73-4.87
			c27.62,0.15,55.24,0.15,82.86,0c3.81-0.02,4.76,1.42,4.71,4.88C472.88,283.71,472.8,298.9,472.67,314.09z"/>
		<path class="st3" d="M407.3,392.61c8.09,3.66,16.63,3.92,25.33,3.76c9.02-0.17,9.43,0.72,6.6,9.77
			c-3.12,10-7.51,19.52-10.71,29.53c-2.74,8.57-2.52,17.06-2.38,25.66c0.08,5.35,4.05,8.78,8.48,9.97c9.21,2.48,16.05,9,24.37,12.81
			c5.16,2.36,9.2,6,13.59,9.29c-0.17,1.51-1.18,1.86-2.5,1.85c-9.71-0.11-19.41-0.21-29.12-0.32c-0.83-4.59-5.1-4.2-8.05-4.91
			c-5.48-1.31-10.6-3.35-15.4-6.1c-6.93-3.96-7.24-5.09-5.59-12.69c1.85-8.5-0.25-11.74-9.16-13.23
			c-7.26-1.21-13.57-3.83-18.29-9.74c-0.67-0.84-2.13-1.04-3.22-1.53c-0.67-2.49-0.62-4.98,0.02-7.47c2.49,0,4.98,0.04,7.47-0.01
			c9.09-0.18,10.35-1.18,12.38-10.26c1.01-4.51,0.58-9.29,2.61-13.63C407.12,408.13,407.91,400.47,407.3,392.61z"/>
		<path class="st3" d="M588.27,239.3c-17.7-0.07-35.41-0.13-53.11-0.21c-2.17-0.01-4.35,0.01-6.52-0.08
			c-1.61-0.07-3.1-0.44-3.23-2.48c-0.1-1.51,1.01-2.02,2.1-2.69c7.59-4.64,15.57-8.44,23.84-11.71c2.85-1.13,5.52-2.72,8.15-4.03
			c0.14-3.71-3.37-4.39-4.59-6.91c-2.24-4.67-3.69-4.71-5.21,0.04c-1.89,5.9-4.27-0.25-6.43,0.85c-2.17,1.1,0.34,6.13-3.49,4.41
			c-3.98-1.78-5.3-0.62-5.25,3.04c0.05,3.91-2.08,6.36-4.76,8.59c-1.16,0.97-2.59,2.2-3.96,0.54c-1.17-1.42-0.61-2.92,0.89-3.9
			c1.39-0.9,4.13-0.83,2.86-3.6c-0.69-1.52-2.25-2.12-3.94-1.46c-4.27,1.66-5.42-1.04-6.43-4.33c-1-3.25-2.3-6.41-3.47-9.61
			c2.75-2.68,6.67-3.01,9.85-4.88c2.73-1.6,5.58-3.11,6.77-6.11c2.82-7.12,7.11-13.91,5.72-22.13c8.41,0.14,16.9-1.48,25.21,1.09
			c-7.22,5.1-8.03,8.47-3.58,14.92c5.67,8.21,8.82,8.78,16.61,4.26c4.2-2.44,6.93-7.17,12.26-7.74c0.52,4.98,0.62,9.97-0.04,14.95
			c-6.83-0.33-11.28,4.39-16.07,8c-3.44,2.59-3.24,6.18-0.64,9.76c4.16,5.73,10.34,7.16,16.69,8.38
			C589.03,230.62,589.43,234.98,588.27,239.3z"/>
		<path class="st5" d="M563.29,173.74c-8.31-2.57-16.8-0.95-25.21-1.09c-19.28,0-38.56,0-57.84,0c-0.04,0.38-0.07,0.77-0.11,1.15
			c6.46,1.71,12.91,3.42,19.63,5.2c-1.8,9.35-7.22,14.96-15.43,18.63c-9.28,4.14-18.75,3.4-28.2,1.6c-4.75-0.91-8.84-3.93-9.9-8.9
			c-1-4.68,2.21-7.9,5.53-10.95c2.55-2.35,6.52-3.03,8.62-6.65c-33.71,0-66.68,0-99.64,0c-25.41-0.1-50.82-0.23-76.22-0.29
			c-18.29-0.05-36.57-0.04-54.86,0.04c-3.03,0.01-6.22-0.81-9.05,1.07c-1.19-1.2-0.87-2.48,0.57-2.66c2.76-0.34,5.58-0.2,8.38-0.2
			c117.53,0,235.06,0.01,352.59,0.01c7.25,0,7.25-0.01,6.64,8.89c-4.62-7.2-11.18-8.71-19.07-6.66
			C567.63,173.46,565.43,173.48,563.29,173.74z"/>
		<path class="st6" d="M381.26,446.74c1.09,0.5,2.55,0.7,3.22,1.53c4.72,5.9,11.03,8.53,18.29,9.74c8.92,1.48,11.01,4.73,9.16,13.23
			c-1.65,7.6-1.34,8.73,5.59,12.69c4.8,2.74,9.92,4.78,15.4,6.1c2.95,0.71,7.21,0.32,8.05,4.91c-19.32,0.58-38.64,0.52-57.95-0.02
			c-0.56-0.49-1.12-0.98-1.69-1.47C380.5,477.87,380.66,462.3,381.26,446.74z"/>
		<path class="st7" d="M407.3,392.61c0.61,7.86-0.18,15.52-3.56,22.75c-2.03,4.34-1.61,9.12-2.61,13.63
			c-2.02,9.08-3.29,10.08-12.38,10.26c-2.49,0.05-4.98,0.01-7.47,0.01c-0.65-19.93-0.54-39.87,0.04-59.8
			c8.85,1.38,15.14,7.72,22.67,11.67C405.05,391.69,406.19,392.12,407.3,392.61z"/>
		<path class="st3" d="M415.09,362.41c-6.08,2.12-12.26,4.02-18.23,6.44c-5.15,2.1-10.39,0.85-15.58,1.28
			c-0.67-11.21-0.71-22.43,0-33.64c9.6-0.33,18.63,2.09,27.42,5.69c3.35,1.37,5.72,3.43,6.18,7.2c-6.19,3.06-6.27,3.12-2.75,7.67
			C413.43,358.73,414.83,360.23,415.09,362.41z"/>
		<path class="st8" d="M563.29,173.74c2.14-0.26,4.34-0.27,6.41-0.81c7.9-2.05,14.46-0.54,19.07,6.66
			c-0.06,1.86-0.13,3.73-0.19,5.59c-5.34,0.56-8.07,5.3-12.26,7.74c-7.79,4.52-10.94,3.95-16.61-4.26
			C555.25,182.21,556.06,178.84,563.29,173.74z"/>
		<path class="st9" d="M588.52,226.27c-6.35-1.22-12.53-2.65-16.69-8.38c-2.6-3.58-2.81-7.17,0.64-9.76c4.79-3.61,9.24-8.33,16.07-8
			C589.17,208.84,589.22,217.56,588.52,226.27z"/>
		<path class="st3" d="M381.32,493.44c0.56,0.49,1.12,0.98,1.69,1.47C381.73,495.24,381.03,494.9,381.32,493.44z"/>
		<path class="st8" d="M415.09,362.41c-0.26-2.19-1.66-3.69-2.95-5.35c-3.52-4.55-3.44-4.62,2.75-7.67
			c9.36-0.02,18.46,1.82,27.54,3.85c2.41,0.54,4.34,1.37,4.1,4.06c-0.7,7.92,4.64,11.63,10.25,15.21c2.35,1.5,4.67,3.09,7.14,4.38
			c3.67,1.91,6.33,4.3,4.46,8.8c-1.54,3.71-8.32,6.02-12.09,3.98c-7.94-4.29-14.86-10.06-21.81-15.77
			c-3.83-3.15-7.72-6.23-11.45-9.49C420.66,362.36,417.85,362.62,415.09,362.41z"/>
		<path class="st9" d="M360.73,172.72c32.96,0,65.93,0,99.64,0c-2.1,3.61-6.07,4.3-8.62,6.65c-3.32,3.05-6.53,6.27-5.53,10.95
			c1.07,4.97,5.15,7.99,9.9,8.9c9.45,1.8,18.92,2.55,28.2-1.6c8.21-3.67,13.63-9.28,15.43-18.63c-6.72-1.78-13.17-3.49-19.63-5.2
			c0.04-0.38,0.07-0.77,0.11-1.15c19.28,0,38.56,0,57.84,0c1.38,8.22-2.9,15.01-5.72,22.13c-1.19,3-4.04,4.5-6.77,6.11
			c-3.18,1.87-7.1,2.2-9.85,4.88c-12.05-0.91-23.58,0.98-34.1,7.07c-5.34,3.09-10.23,6.94-15.38,10.36
			c-4.39,2.91-8.85,5.71-13.31,8.5c-1.05,0.66-2.2,1.49-3.35,1.57c-12.64,0.87-25.45,2.89-37.09-4.51
			c-3.66-2.33-7.29-4.7-10.99-6.96c-6.65-4.05-13.59-4.05-20.47-0.86c-6.23,2.89-12,6.68-16.44,11.98
			c-4.18,4.98-9.18,6.54-15.56,6.29c-11.48-0.45-22.99-0.21-34.49-0.25c1.32-4.39,5.55-5.77,8.82-7.7
			c9.87-5.84,17.92-14.14,27.55-20.11c6.7-4.15,8.96-7.76,4.61-14.96c-1.39-2.31-0.4-6.05-0.5-9.14
			C356.48,182.1,360.42,178.13,360.73,172.72z"/>
		<path class="st8" d="M355.02,187.05c0.1,3.09-0.89,6.83,0.5,9.14c4.35,7.2,2.09,10.81-4.61,14.96
			c-9.63,5.97-17.68,14.27-27.55,20.11c-3.27,1.93-7.5,3.32-8.82,7.7c-10.96,0.37-21.92,0.68-32.87-0.18
			c0.73-1.72,1.43-3.55,3.27-4.33c14.36-6.1,25.27-17.3,38.03-25.78c9.25-6.14,18.06-12.95,27.01-19.53
			C351.54,188,353.08,187.11,355.02,187.05z"/>
		<path class="st3" d="M510.91,227.76c4.46,3.35,5.63,6.39,3.73,11.41C511.28,235.87,511.09,232.51,510.91,227.76z"/>
		<path class="st3" d="M518.51,234.94c-0.77-3.05-1.55-6.1-2.32-9.16c3.78,2.21,5.78,4.97,4.34,8.91
			C519.85,234.77,519.18,234.86,518.51,234.94z"/>
	</g>
</g>
</svg>
